<svg xmlns="http://www.w3.org/2000/svg" viewBox="0 0 468.4 161.9" enable-background="new 0 0 468.4 161.9"><g fill="#fff"><path d="m75.3 114.9c.8 1 2.5 1 3.8 0 1.2-1 1.6-2.7.8-3.8-.8-1.1-2.5-1.1-3.8 0-1.3 1-1.7 2.7-.8 3.8"/><path d="m83.3 108.2c.9 1.2 2.8 1.2 4.1 0 1.4-1.1 1.7-3 .8-4.1-.9-1.1-2.8-1.2-4.1 0-1.4 1.1-1.7 2.9-.8 4.1"/><path d="m96.3 101.5c1.5-1.2 1.9-3.2.9-4.5-1-1.2-3-1.2-4.5 0-1.5 1.2-1.9 3.2-.9 4.5 1.1 1.3 3.1 1.3 4.5 0"/><path d="m87.8 86.9c1 1.2 3 1.2 4.5 0 1.5-1.2 1.9-3.2.9-4.5-1-1.2-3-1.2-4.5 0-1.5 1.3-1.9 3.3-.9 4.5"/><path d="m81.5 82.4c-1.5 1.2-1.9 3.2-.9 4.5 1 1.2 3 1.2 4.5 0 1.5-1.2 1.9-3.2.9-4.5-1-1.2-3-1.2-4.5 0"/><path d="m74 86.7c.9 1.1 2.8 1.1 4.1 0 1.4-1.1 1.7-3 .8-4.1-.9-1.1-2.8-1.2-4.1 0-1.3 1.1-1.7 3-.8 4.1"/><path d="m79.3 94.1c.9 1.1 2.8 1.1 4.1 0 1.4-1.1 1.7-3 .8-4.1-.9-1.1-2.8-1.2-4.1 0-1.4 1.1-1.7 3-.8 4.1"/><path d="m67.2 121.5c.8.9 2.3 1 3.4 0 1.1-.9 1.4-2.5.7-3.4-.8-1-2.3-1-3.4 0-1.1.9-1.4 2.5-.7 3.4"/><path d="m72.4 94.1c.9 1.1 2.8 1.1 4.1 0 1.4-1.1 1.7-3 .8-4.1-.9-1.1-2.8-1.2-4.1 0-1.3 1.1-1.7 3-.8 4.1"/><path d="m68.8 97.4c-.8-1.1-2.5-1.1-3.8 0-1.2 1-1.6 2.7-.7 3.8.8 1 2.5 1.1 3.8 0 1.2-1.1 1.5-2.7.7-3.8"/><path d="m65.8 94c.8 1 2.5 1.1 3.8 0 1.2-1 1.6-2.7.7-3.8-.8-1-2.5-1.1-3.8 0-1.2 1-1.6 2.7-.7 3.8"/><path d="m71.1 101.2c.8 1 2.5 1 3.8 0 1.2-1 1.6-2.7.8-3.8-.8-1-2.5-1-3.8 0-1.3 1-1.6 2.7-.8 3.8"/><path d="m89.6 97.2c-.9-1.1-2.8-1.1-4.1 0-1.4 1.1-1.7 3-.8 4.1.9 1.1 2.8 1.2 4.1 0 1.3-1.1 1.7-2.9.8-4.1"/><path d="m68 82.6c-1.4 1.1-1.7 3-.8 4.1.9 1.1 2.8 1.1 4.1 0 1.4-1.1 1.7-3 .8-4.1-.9-1.1-2.8-1.1-4.1 0"/><path d="m63.4 90.2c-.8-1-2.5-1-3.8 0-1.2 1-1.6 2.7-.8 3.8.8 1 2.5 1.1 3.8 0 1.3-1.1 1.7-2.7.8-3.8"/><path d="m57.6 101c.8 1 2.3 1 3.4 0 1.1-.9 1.4-2.5.7-3.4-.8-1-2.3-1-3.4 0-1.2.9-1.5 2.4-.7 3.4"/><path d="m72.7 111.3c-.8-.9-2.3-1-3.4 0-1.1.9-1.4 2.5-.7 3.4.8.9 2.3 1 3.4 0 1.2-.9 1.5-2.5.7-3.4"/><path d="m63.1 107.8c.8.9 2.3.9 3.4 0 1.1-.9 1.4-2.5.7-3.4-.8-1-2.3-1-3.4 0-1.2 1-1.5 2.5-.7 3.4"/><path d="m81.8 101.4c1.4-1.1 1.7-3 .8-4.1-.9-1.1-2.8-1.2-4.1 0-1.4 1.1-1.7 3-.8 4.1.9 1.1 2.7 1.1 4.1 0"/><path d="m81.1 104.3c-.8-1-2.5-1-3.8 0-1.3 1-1.6 2.7-.8 3.8.8 1.1 2.5 1.1 3.8 0 1.3-1.1 1.7-2.8.8-3.8"/><path d="m90.4 94.3c1.5-1.2 1.9-3.2.9-4.5-1-1.2-3-1.3-4.5 0-1.5 1.2-1.9 3.2-.9 4.5 1 1.2 3 1.3 4.5 0"/><path d="m74.3 104.3c-.8-1-2.5-1.1-3.8 0-1.3 1-1.6 2.7-.7 3.8.8 1 2.5 1.1 3.8 0 1.2-1.1 1.5-2.8.7-3.8"/><path d="m59.2 128.2c.7.9 2.1.9 3.1 0 1-.8 1.3-2.2.6-3.1-.7-.9-2.1-.9-3.1 0-1 .9-1.3 2.2-.6 3.1"/><path d="m21.6 148c.4.5 1.1.5 1.7 0 .6-.5.7-1.2.3-1.7-.4-.5-1.1-.5-1.7 0-.5.5-.7 1.3-.3 1.7"/><path d="m10.6 134.3c.4.5 1.2.5 1.7 0 .6-.5.7-1.2.3-1.7-.4-.5-1.1-.5-1.7 0-.5.5-.7 1.3-.3 1.7"/><path d="m16.1 141.2c.4.5 1.1.5 1.7 0 .6-.5.7-1.2.3-1.7-.4-.5-1.1-.5-1.7 0-.5.5-.7 1.2-.3 1.7"/><path d="m20.5 154.7c.3.4.9.4 1.4 0 .5-.4.6-1 .3-1.4-.3-.4-.9-.4-1.4 0-.5.4-.6 1.1-.3 1.4"/><path d="m19.1 161.6c.3.4.9.4 1.4 0 .5-.4.6-1 .3-1.4-.3-.4-.9-.4-1.4 0-.5.4-.6 1-.3 1.4"/><path d="m15 147.9c.3.4.9.4 1.4 0 .5-.4.6-1 .3-1.4-.3-.4-.9-.4-1.4 0-.5.4-.6 1-.3 1.4"/><path d="m9.5 141c.3.4.9.4 1.4 0 .5-.4.6-1 .3-1.4-.3-.4-.9-.4-1.4 0-.5.4-.7 1-.3 1.4"/><path d="m18.6 127.7c.5.6 1.4.6 2.1 0 .7-.6.9-1.5.4-2.1-.5-.6-1.4-.6-2.1 0-.6.6-.8 1.5-.4 2.1"/><path d="m27.1 154.9c.4.5 1.1.5 1.7 0 .6-.5.7-1.2.3-1.7-.4-.5-1.1-.5-1.7 0-.5.5-.6 1.2-.3 1.7"/><path d="m61.7 114.7c.8 1 2.3 1 3.4 0 1.1-.9 1.4-2.5.7-3.4-.8-1-2.3-1-3.4 0-1.1.9-1.4 2.4-.7 3.4"/><path d="m24.1 134.5c.4.6 1.4.6 2.1 0 .7-.6.9-1.5.4-2.1-.5-.6-1.4-.6-2.1 0-.6.6-.8 1.6-.4 2.1"/><path d="m17.5 134.4c.4.5 1.1.5 1.7 0 .6-.5.7-1.2.3-1.7-.4-.5-1.1-.5-1.7 0-.5.4-.7 1.2-.3 1.7"/><path d="m23 141.2c.4.5 1.1.5 1.7 0 .6-.5.7-1.2.3-1.7-.4-.5-1.1-.5-1.7 0-.5.5-.7 1.2-.3 1.7"/><path d="m29.7 141.4c.5.6 1.4.6 2.1 0 .7-.6.9-1.5.4-2.1-.5-.6-1.4-.6-2.1 0-.7.6-.9 1.5-.4 2.1"/><path d="m.1 154.5c.2.3.6.3 1 0 .3-.3.4-.7.2-.9-.2-.3-.7-.3-1 0-.3.2-.4.7-.2.9"/><path d="m5.6 161.4c.2.3.7.3 1 0 .3-.3.4-.7.2-.9-.2-.3-.7-.3-1 0-.3.2-.4.6-.2.9"/><path d="m13.6 154.7c.3.4.9.4 1.4 0 .5-.4.6-1 .3-1.4-.3-.4-.9-.4-1.4 0-.5.4-.6 1.1-.3 1.4"/><path d="m2.6 141c.3.4.9.4 1.4 0s.6-1 .3-1.4c-.3-.4-.9-.4-1.4 0-.5.4-.6 1.1-.3 1.4"/><path d="m8.1 147.9c.3.4.9.4 1.4 0 .5-.4.6-1 .3-1.4-.3-.4-.9-.4-1.4 0-.5.4-.6 1-.3 1.4"/><path d="m1.5 147.7c.2.3.6.3 1 0 .3-.3.4-.7.2-.9-.2-.3-.7-.3-1 0-.4.2-.4.6-.2.9"/><path d="m7 154.5c.2.3.6.3 1 0 .3-.3.4-.7.2-.9-.2-.3-.7-.2-1 0-.4.2-.4.7-.2.9"/><path d="m12.5 161.4c.2.3.6.3 1 0 .3-.3.4-.7.2-.9-.2-.3-.7-.3-1 0-.3.2-.4.6-.2.9"/><path d="m28.5 148c.4.5 1.1.5 1.7 0 .6-.5.7-1.2.3-1.7-.4-.5-1.1-.5-1.7 0-.5.5-.7 1.3-.3 1.7"/><path d="m47.1 121.2c.6.8 1.8.8 2.7 0 .9-.8 1.2-2 .6-2.8-.6-.8-1.8-.8-2.7 0-1 .8-1.3 2-.6 2.8"/><path d="m48.2 114.5c.7.9 2.1.9 3.1 0 1-.9 1.3-2.2.6-3.1-.7-.9-2.1-.9-3.1 0-1 .9-1.3 2.3-.6 3.1"/><path d="m42.7 107.7c.7.9 2.1.9 3.1 0 1-.9 1.3-2.2.6-3.1-.7-.9-2.1-.9-3.1 0-1 .8-1.3 2.2-.6 3.1"/><path d="m52.5 128c.6.8 1.8.8 2.7 0 .9-.8 1.2-2 .6-2.7-.6-.8-1.8-.8-2.7 0-.9.7-1.2 2-.6 2.7"/><path d="m41.5 114.4c.6.7 1.8.8 2.7 0 .9-.8 1.2-2 .6-2.7-.6-.8-1.8-.8-2.7 0-.9.7-1.2 1.9-.6 2.7"/><path d="m51.2 134.9c.6.8 1.8.8 2.7 0 .9-.8 1.2-2 .6-2.7-.6-.8-1.8-.8-2.8 0-.9.7-1.1 1.9-.5 2.7"/><path d="m45.7 128c.6.8 1.8.8 2.7 0 .9-.8 1.2-2 .5-2.7-.6-.8-1.8-.8-2.7 0-.9.7-1.1 2-.5 2.7"/><path d="m50.7 101c.8 1 2.3 1 3.4 0 1.1-.9 1.4-2.5.7-3.4-.8-1-2.3-1-3.4 0-1.1.9-1.4 2.4-.7 3.4"/><path d="m60.6 121.4c.7.9 2.1.9 3.1 0 1-.9 1.3-2.2.6-3.1-.7-.8-2.1-.9-3.1 0-1 .8-1.3 2.2-.6 3.1"/><path d="m56.2 107.8c.8.9 2.3 1 3.4 0 1.1-.9 1.4-2.5.7-3.4-.8-1-2.3-1-3.4 0-1.1 1-1.4 2.5-.7 3.4"/><path d="m53.7 121.4c.7.9 2.1.9 3.1 0 1-.8 1.3-2.2.6-3.1-.7-.9-2.1-.9-3.1 0-1 .8-1.3 2.2-.6 3.1"/><path d="m55.1 114.5c.7.9 2.1.9 3.1 0 1-.8 1.3-2.2.6-3.1-.7-.9-2.1-.9-3.1 0-1 .9-1.3 2.3-.6 3.1"/><path d="m49.6 107.7c.7.9 2.1.9 3.1 0 1-.8 1.3-2.2.6-3.1-.7-.9-2.1-.9-3.1 0-1 .8-1.3 2.2-.6 3.1"/><path d="m32.2 127.9c.5.7 1.6.7 2.4 0 .8-.7 1-1.7.5-2.4-.5-.7-1.6-.7-2.4 0-.8.6-1.1 1.7-.5 2.4"/><path d="m36.5 141.4c.5.6 1.4.6 2.1 0 .7-.6.9-1.5.4-2.1-.5-.6-1.4-.6-2.1 0-.7.6-.8 1.5-.4 2.1"/><path d="m37.7 134.7c.5.7 1.6.7 2.4 0 .8-.7 1-1.7.5-2.4-.5-.7-1.6-.7-2.4 0-.8.7-1.1 1.7-.5 2.4"/><path d="m26.7 121c.5.7 1.6.7 2.4 0 .8-.7 1-1.7.5-2.4-.5-.7-1.6-.7-2.4 0-.9.7-1.1 1.8-.5 2.4"/><path d="m35.1 148.2c.5.6 1.4.6 2.1 0 .7-.6.9-1.5.4-2.1-.5-.6-1.4-.6-2.1 0-.6.6-.8 1.6-.4 2.1"/><path d="m31 134.5c.5.6 1.4.6 2.1 0 .7-.6.9-1.5.4-2.1-.5-.6-1.4-.6-2.1 0-.7.6-.9 1.6-.4 2.1"/><path d="m25.5 127.7c.4.6 1.4.6 2.1 0 .7-.6.9-1.5.4-2.1-.5-.6-1.4-.6-2.1 0-.7.6-.9 1.5-.4 2.1"/><path d="m33.5 121c.5.7 1.6.7 2.4 0 .8-.7 1-1.7.5-2.4-.5-.7-1.6-.7-2.4 0-.8.7-1 1.8-.5 2.4"/><path d="m43.2 141.5c.5.7 1.6.7 2.4 0 .8-.7 1-1.7.5-2.4-.5-.7-1.6-.7-2.4 0-.8.7-1.1 1.8-.5 2.4"/><path d="m34.7 114.3c.6.8 1.8.8 2.7 0 .9-.8 1.2-2 .5-2.8-.6-.8-1.8-.8-2.7 0-.9.9-1.1 2.1-.5 2.8"/><path d="m44.5 134.7c.5.7 1.6.7 2.4 0 .8-.7 1-1.7.5-2.4-.5-.7-1.6-.7-2.4 0-.8.7-1 1.7-.5 2.4"/><path d="m40.2 121.2c.6.8 1.8.8 2.7 0 .9-.8 1.2-2 .5-2.7-.6-.8-1.8-.8-2.7 0-.9.7-1.1 1.9-.5 2.7"/><path d="m39 127.9c.5.7 1.6.7 2.4 0 .8-.7 1-1.7.5-2.4-.5-.7-1.6-.7-2.4 0-.8.6-1 1.7-.5 2.4"/><path d="m88.1 50.8c.8 1 2.5 1 3.7 0 1.2-1 1.5-2.7.7-3.8-.8-1-2.5-1-3.7 0-1.2 1.1-1.5 2.8-.7 3.8"/><path d="m93.7 57.8c.9 1.1 2.8 1.1 4.1 0 1.4-1.1 1.7-3 .8-4.1-.9-1.1-2.8-1.1-4.1 0-1.4 1.1-1.7 3-.8 4.1"/><path d="m100.5 60.4c-1.5 1.2-1.8 3.2-.9 4.5 1 1.2 3 1.2 4.5 0 1.5-1.2 1.8-3.2.9-4.5-1-1.3-3-1.3-4.5 0"/><path d="m89.3 79.5c1 1.2 3 1.2 4.5 0 1.5-1.2 1.9-3.2.9-4.5-1-1.2-3-1.2-4.5 0-1.6 1.3-1.9 3.2-.9 4.5"/><path d="m86.5 79.5c1.5-1.2 1.8-3.2.8-4.5-1-1.2-3-1.2-4.5 0-1.5 1.2-1.9 3.2-.9 4.5 1.2 1.2 3.2 1.2 4.6 0"/><path d="m75.4 79.3c.9 1.1 2.8 1.1 4.1 0 1.4-1.1 1.7-3 .8-4.1-.9-1.1-2.8-1.1-4.1 0-1.4 1.1-1.7 3-.8 4.1"/><path d="m83.9 71.9c.9 1.1 2.8 1.1 4.1 0 1.4-1.1 1.7-3 .8-4.1-.9-1.1-2.8-1.1-4.1 0-1.4 1.1-1.8 3-.8 4.1"/><path d="m82.7 43.8c.8.9 2.3.9 3.4 0 1.1-1 1.4-2.5.7-3.4-.8-.9-2.3-.9-3.4 0-1.1.9-1.4 2.4-.7 3.4"/><path d="m77 71.9c.9 1.1 2.8 1.1 4.1 0 1.4-1.1 1.7-3 .8-4.1-.9-1.1-2.8-1.1-4.1 0-1.4 1.1-1.7 3-.8 4.1"/><path d="m76.2 60.7c-.8-1-2.5-1-3.8 0-1.2 1-1.6 2.7-.7 3.8.8 1 2.5 1 3.8 0 1.3-1.1 1.6-2.8.7-3.8"/><path d="m70.3 71.7c.8 1 2.5 1 3.8 0 1.2-1.1 1.6-2.7.7-3.8-.8-1-2.5-1-3.8 0-1.2 1.1-1.5 2.8-.7 3.8"/><path d="m78.6 64.5c.8 1 2.5 1 3.8 0 1.2-1 1.6-2.7.7-3.8-.8-1-2.5-1-3.8 0-1.2 1.1-1.5 2.8-.7 3.8"/><path d="m97.3 60.5c-.9-1.1-2.8-1.1-4.1 0-1.3 1.1-1.7 3-.8 4.1.9 1.1 2.8 1.1 4.1 0 1.4-1.1 1.8-2.9.8-4.1"/><path d="m72.6 79.3c1.4-1.1 1.7-3 .8-4.1-.9-1.1-2.8-1.1-4.1 0-1.3 1.1-1.7 3-.8 4.1.9 1.1 2.8 1.1 4.1 0"/><path d="m67.9 67.9c-.8-1-2.5-1-3.8 0-1.2 1-1.6 2.7-.7 3.8.8 1 2.5 1 3.8 0 1.3-1 1.6-2.7.7-3.8"/><path d="m65.1 64.3c.8.9 2.3.9 3.4 0 1.1-1 1.4-2.5.7-3.4-.8-.9-2.3-.9-3.4 0-1.2.9-1.5 2.5-.7 3.4"/><path d="m85.5 47.2c-.8-.9-2.3-.9-3.4 0-1.1 1-1.4 2.5-.7 3.4.8.9 2.3.9 3.4 0 1.2-.9 1.5-2.5.7-3.4"/><path d="m73.2 57.5c.8.9 2.3.9 3.4 0 1.1-1 1.4-2.5.6-3.4-.8-.9-2.3-.9-3.4 0-1 .9-1.3 2.4-.6 3.4"/><path d="m86.1 60.5c-1.4 1.1-1.7 3-.8 4.1.9 1.1 2.8 1.1 4.1 0 1.4-1.1 1.7-3 .8-4.1-.9-1.1-2.8-1.1-4.1 0"/><path d="m91.3 53.9c-.8-1-2.5-1-3.8 0-1.2 1.1-1.6 2.7-.7 3.8.8 1 2.5 1 3.8 0 1.2-1.1 1.5-2.8.7-3.8"/><path d="m91.5 67.6c-1.5 1.2-1.9 3.2-.9 4.5 1 1.2 3 1.2 4.5 0 1.5-1.2 1.9-3.2.8-4.5-.9-1.2-2.9-1.2-4.4 0"/><path d="m84.4 53.9c-.8-1-2.5-1-3.8 0-1.2 1-1.6 2.7-.7 3.8.8 1 2.5 1 3.8 0 1.2-1.1 1.6-2.8.7-3.8"/><path d="m77.4 36.8c.7.8 2.1.8 3.1 0 1-.9 1.3-2.2.6-3.1-.7-.8-2.1-.9-3.1 0-1.1.8-1.3 2.2-.6 3.1"/><path d="m47.7 15.5c.4.5 1.1.5 1.7 0 .6-.5.7-1.2.3-1.7-.4-.5-1.1-.5-1.7 0-.5.5-.6 1.3-.3 1.7"/><path d="m31.4 29.2c.4.5 1.1.5 1.7 0 .6-.5.7-1.2.3-1.7-.4-.5-1.2-.5-1.7 0-.6.5-.7 1.3-.3 1.7"/><path d="m39.6 22.4c.4.5 1.1.5 1.7 0 .6-.5.7-1.2.3-1.7-.4-.5-1.2-.5-1.7 0-.6.5-.7 1.2-.3 1.7"/><path d="m49.2 8.5c.3.4.9.4 1.4 0 .5-.4.6-1 .3-1.4-.3-.4-.9-.4-1.4 0-.4.4-.6 1.1-.3 1.4"/><path d="m50.6 1.7c.3.4.9.4 1.4 0 .5-.4.6-1 .3-1.4-.3-.4-.9-.4-1.4 0-.5.4-.7 1-.3 1.4"/><path d="m41.1 15.4c.3.4.9.4 1.4 0 .5-.4.6-1 .3-1.4-.3-.4-.9-.4-1.4 0-.5.4-.6 1-.3 1.4"/><path d="m32.9 22.2c.3.4.9.4 1.4 0 .4-.4.6-1 .3-1.4-.3-.4-.9-.4-1.4 0-.5.4-.6 1.1-.3 1.4"/><path d="m36.7 36.3c.5.6 1.4.6 2.1 0 .7-.6.9-1.5.4-2.1-.5-.6-1.4-.6-2.1 0-.6.6-.8 1.5-.4 2.1"/><path d="m55.9 8.7c.4.5 1.2.5 1.7 0 .6-.5.8-1.3.4-1.7-.4-.5-1.1-.5-1.7 0-.6.5-.8 1.2-.4 1.7"/><path d="m74.5 50.6c.8.9 2.3.9 3.4 0 1.1-1 1.4-2.5.6-3.4-.8-.9-2.3-.9-3.4 0-1 1-1.3 2.5-.6 3.4"/><path d="m44.9 29.4c.5.6 1.4.6 2.1 0 .7-.6.9-1.5.4-2.1-.5-.6-1.4-.6-2.1 0-.7.6-.8 1.6-.4 2.1"/><path d="m38.3 29.2c.4.5 1.1.5 1.7 0 .6-.5.7-1.2.3-1.7-.4-.5-1.1-.5-1.7 0-.6.5-.7 1.3-.3 1.7"/><path d="m46.4 22.4c.4.5 1.1.5 1.7 0 .6-.5.7-1.2.3-1.7-.4-.5-1.2-.5-1.7 0-.5.5-.6 1.2-.3 1.7"/><path d="m53.1 22.6c.5.6 1.4.6 2.1 0 .7-.6.9-1.5.4-2.1-.5-.6-1.4-.6-2.1 0-.7.6-.8 1.5-.4 2.1"/><path d="m28.9 8.3c.2.3.7.3 1 0 .3-.3.4-.7.1-.9-.2-.3-.7-.2-1 0-.3.2-.3.7-.1.9"/><path d="m37.1 1.4c.2.3.7.3 1 0 .3-.3.4-.7.2-.9-.2-.3-.7-.3-1 0-.4.3-.5.7-.2.9"/><path d="m42.4 8.5c.3.4.9.4 1.4 0 .5-.4.6-1 .3-1.4-.3-.4-.9-.4-1.4 0-.5.4-.6 1-.3 1.4"/><path d="m26 22.2c.3.4.9.4 1.4 0 .5-.4.6-1 .3-1.4-.3-.4-.9-.4-1.4 0-.5.4-.6 1.1-.3 1.4"/><path d="m34.2 15.4c.3.4.9.4 1.4 0 .5-.4.6-1 .3-1.4-.3-.4-.9-.4-1.4 0-.5.4-.6 1-.3 1.4"/><path d="m27.6 15.2c.2.3.7.3 1 0 .3-.3.4-.7.2-.9-.2-.3-.7-.2-1 0-.4.2-.5.6-.2.9"/><path d="m35.7 8.3c.2.3.7.3 1 0 .3-.3.4-.7.2-.9-.2-.3-.7-.3-1 0-.3.2-.4.6-.2.9"/><path d="m43.9 1.4c.2.2.7.3 1 0 .3-.3.4-.7.2-.9-.2-.3-.7-.3-1 0-.3.3-.4.7-.2.9"/><path d="m54.6 15.5c.4.5 1.1.5 1.7 0 .6-.5.7-1.2.3-1.7-.4-.5-1.2-.5-1.7 0-.5.5-.7 1.3-.3 1.7"/><path d="m62.5 43.5c.6.8 1.8.8 2.7 0 .9-.8 1.1-2 .5-2.7-.6-.8-1.8-.8-2.7 0-.9.7-1.1 1.9-.5 2.7"/><path d="m61 50.5c.7.9 2.1.8 3.1 0 1-.8 1.3-2.2.6-3.1-.7-.8-2.1-.8-3.1 0-1 .8-1.3 2.2-.6 3.1"/><path d="m52.8 57.3c.7.8 2.1.8 3.1 0 1-.9 1.3-2.2.6-3.1-.7-.9-2.1-.8-3.1 0-1 .9-1.3 2.3-.6 3.1"/><path d="m70.7 36.6c.6.8 1.8.8 2.7 0 .9-.8 1.1-2 .5-2.7-.6-.8-1.8-.8-2.7 0-.9.7-1.1 2-.5 2.7"/><path d="m54.3 50.3c.6.8 1.8.7 2.8 0 .9-.8 1.1-2 .5-2.8-.6-.8-1.9-.7-2.7 0-.9.8-1.2 2-.6 2.8"/><path d="m72 29.8c.6.8 1.8.8 2.8 0 .9-.8 1.1-2 .5-2.8-.6-.7-1.8-.7-2.7 0-1 .8-1.2 2-.6 2.8"/><path d="m63.8 36.6c.6.8 1.8.8 2.7 0 .9-.8 1.1-2 .5-2.7-.6-.8-1.8-.7-2.7 0-.8.7-1.1 2-.5 2.7"/><path d="m58.2 64.3c.8.9 2.3.9 3.4 0 1.1-1 1.4-2.5.7-3.4-.8-.9-2.3-.9-3.4 0-1.2.9-1.5 2.5-.7 3.4"/><path d="m76.1 43.6c.7.8 2.1.8 3.1 0 1-.9 1.3-2.2.6-3.1-.7-.9-2.1-.9-3.1 0-1.1.9-1.3 2.3-.6 3.1"/><path d="m66.4 57.5c.8 1 2.3.9 3.4 0 1.1-.9 1.4-2.5.6-3.4-.8-.9-2.3-.9-3.4 0-1.1.9-1.4 2.4-.6 3.4"/><path d="m69.2 43.6c.7.8 2.1.9 3.1 0 1-.9 1.3-2.2.6-3.1-.7-.9-2.1-.8-3.1 0-1 .9-1.3 2.3-.6 3.1"/><path d="m67.9 50.5c.7.9 2.1.8 3.1 0 1-.9 1.3-2.2.6-3.1-.7-.9-2.1-.8-3.1 0-1 .8-1.3 2.2-.6 3.1"/><path d="m59.7 57.3c.7.8 2.1.8 3.1 0 1-.9 1.3-2.2.6-3.1-.7-.9-2.1-.9-3.1 0-1 .9-1.3 2.3-.6 3.1"/><path d="m50.3 36.4c.5.7 1.6.7 2.4 0 .8-.7 1-1.7.5-2.4-.5-.7-1.6-.7-2.4 0-.8.7-1.1 1.8-.5 2.4"/><path d="m60 22.6c.5.6 1.4.6 2.1 0 .7-.6.9-1.5.4-2.1-.5-.6-1.4-.6-2.1 0-.7.6-.9 1.5-.4 2.1"/><path d="m58.5 29.6c.5.7 1.6.7 2.4 0 .8-.7 1-1.7.5-2.4-.5-.7-1.6-.7-2.4 0-.9.7-1.1 1.7-.5 2.4"/><path d="m42.1 43.3c.5.7 1.6.7 2.4 0 .8-.7 1-1.7.5-2.4-.5-.7-1.6-.7-2.4 0-.8.6-1 1.7-.5 2.4"/><path d="m61.3 15.7c.5.6 1.4.6 2.1 0 .7-.6.9-1.5.4-2.1-.5-.6-1.4-.6-2.1 0-.7.6-.9 1.6-.4 2.1"/><path d="m51.8 29.4c.5.6 1.4.6 2.1 0 .7-.6.9-1.5.4-2.1-.5-.6-1.4-.6-2.1 0-.7.6-.9 1.6-.4 2.1"/><path d="m43.6 36.3c.5.6 1.4.6 2.1 0 .7-.6.8-1.5.4-2.1-.5-.6-1.4-.6-2.1 0-.7.6-.8 1.5-.4 2.1"/><path d="m49 43.3c.5.7 1.6.7 2.4 0 .8-.7 1-1.8.5-2.4-.5-.7-1.6-.7-2.4 0-.9.6-1.1 1.7-.5 2.4"/><path d="m66.6 22.8c.5.7 1.6.7 2.4 0 .8-.7 1-1.7.5-2.4-.5-.7-1.6-.7-2.4 0-.8.6-1 1.7-.5 2.4"/><path d="m47.5 50.3c.6.8 1.9.8 2.8 0 .9-.8 1.1-2 .5-2.8-.6-.7-1.8-.7-2.7 0-1 .8-1.2 2-.6 2.8"/><path d="m65.3 29.6c.5.7 1.6.7 2.4 0 .8-.7 1-1.7.5-2.4-.5-.7-1.6-.7-2.4 0-.8.7-1 1.7-.5 2.4"/><path d="m55.6 43.5c.6.8 1.8.8 2.8 0 .9-.8 1.1-2 .5-2.7-.6-.8-1.8-.8-2.7 0-.9.7-1.2 1.9-.6 2.7"/><path d="m57.2 36.4c.5.7 1.6.7 2.4 0 .8-.7 1-1.8.5-2.4-.5-.7-1.6-.7-2.4 0-.9.7-1.1 1.8-.5 2.4"/><path d="m105.9 67.4c-1.6 1.3-2 3.5-1 4.8 1.1 1.3 3.2 1.3 4.8 0 1.6-1.3 2-3.5 1-4.8-1.1-1.3-3.2-1.3-4.8 0"/><path d="m105.2 94.5c1.6-1.3 2-3.5.9-4.8-1.1-1.3-3.2-1.3-4.8 0-1.6 1.3-2 3.5-.9 4.8 1.1 1.3 3.2 1.3 4.8 0"/><path d="m102.8 82.3c-1.6 1.3-2 3.5-.9 4.8 1.1 1.3 3.2 1.3 4.8 0 1.6-1.3 2-3.5.9-4.8-1-1.4-3.2-1.4-4.8 0"/><path d="m104.3 74.8c-1.6 1.3-2 3.5-.9 4.8 1.1 1.3 3.2 1.3 4.8 0 1.6-1.3 2-3.5.9-4.8-1-1.3-3.2-1.3-4.8 0"/><path d="m95.7 82.3c-1.6 1.3-2 3.5-.9 4.8 1.1 1.3 3.2 1.3 4.8 0 1.6-1.3 2-3.5.9-4.8-1-1.4-3.2-1.4-4.8 0"/><path d="m97.3 74.8c-1.6 1.3-2 3.5-.9 4.8 1.1 1.3 3.2 1.3 4.8 0 1.6-1.3 2-3.5.9-4.8-1.1-1.3-3.2-1.3-4.8 0"/><path d="m98.8 67.4c-1.6 1.3-2 3.5-.9 4.8 1.1 1.3 3.2 1.3 4.8 0 1.6-1.3 2-3.5.9-4.8-1-1.3-3.2-1.3-4.8 0"/><path d="m94.2 89.7c-1.6 1.3-2 3.5-.9 4.8 1.1 1.3 3.2 1.3 4.8 0 1.6-1.3 2-3.5.9-4.8-1.1-1.4-3.2-1.3-4.8 0"/><path d="m135.9 47c-.8-1-2.5-1.1-3.8 0-1.3 1-1.6 2.7-.8 3.8.8 1 2.5 1.1 3.8 0 1.3-1 1.7-2.7.8-3.8"/><path d="m127.7 53.7c-.9-1.1-2.8-1.1-4.1 0-1.4 1.1-1.7 3-.8 4.1.9 1.1 2.8 1.2 4.1 0 1.3-1.1 1.7-3 .8-4.1"/><path d="m123.4 75c-1-1.2-3-1.2-4.5 0-1.5 1.2-1.9 3.2-.9 4.5 1 1.2 3 1.3 4.5 0 1.5-1.3 1.9-3.2.9-4.5"/><path d="m129.6 79.5c1.5-1.2 1.9-3.2.9-4.5-1-1.2-3-1.2-4.5 0-1.5 1.2-1.9 3.2-.9 4.5 1 1.2 3 1.2 4.5 0"/><path d="m137.2 75.2c-.9-1.1-2.8-1.1-4.1 0-1.4 1.1-1.7 3-.8 4.1.9 1.1 2.8 1.2 4.1 0 1.3-1.1 1.7-3 .8-4.1"/><path d="m131.9 67.8c-.9-1.1-2.8-1.1-4.1 0-1.4 1.1-1.7 3-.8 4.1.9 1.1 2.8 1.2 4.1 0 1.3-1.1 1.7-3 .8-4.1"/><path d="m143.9 40.4c-.8-1-2.3-1-3.4 0-1.1.9-1.4 2.5-.7 3.4.8 1 2.3 1 3.4 0 1.2-.9 1.5-2.5.7-3.4"/><path d="m138.7 67.8c-.9-1.1-2.8-1.1-4.1 0-1.4 1.1-1.7 3-.8 4.1.9 1.1 2.8 1.2 4.1 0 1.4-1.1 1.7-3 .8-4.1"/><path d="m142.4 64.5c.8 1.1 2.5 1.1 3.8 0 1.2-1 1.6-2.7.7-3.8-.8-1-2.5-1-3.8 0-1.2 1-1.5 2.7-.7 3.8"/><path d="m145.4 67.9c-.8-1.1-2.5-1.1-3.8 0-1.2 1-1.6 2.7-.7 3.8.8 1 2.5 1.1 3.8 0 1.2-1 1.5-2.7.7-3.8"/><path d="m140.1 60.7c-.8-1-2.5-1-3.8 0-1.2 1-1.6 2.7-.8 3.8.8 1 2.5 1.1 3.8 0 1.3-1 1.6-2.7.8-3.8"/><path d="m121.4 64.7c.9 1.1 2.8 1.2 4.1 0 1.4-1.1 1.7-3 .8-4.1-.9-1.1-2.8-1.2-4.1 0-1.4 1.1-1.8 2.9-.8 4.1"/><path d="m143.2 79.3c1.4-1.1 1.7-3 .8-4.1-.9-1.1-2.8-1.1-4.1 0-1.4 1.1-1.7 3-.8 4.1.9 1.1 2.7 1.1 4.1 0"/><path d="m147.7 71.7c.8 1 2.5 1.1 3.8 0 1.2-1 1.6-2.7.8-3.8-.8-1.1-2.5-1.1-3.8 0-1.3 1.1-1.6 2.8-.8 3.8"/><path d="m153.6 60.9c-.8-1-2.3-1-3.4 0-1.1.9-1.4 2.5-.7 3.4.8 1 2.3 1 3.4 0 1.1-.9 1.4-2.5.7-3.4"/><path d="m138.5 50.6c.8.9 2.3 1 3.4 0 1.1-.9 1.4-2.5.7-3.4-.8-.9-2.3-1-3.4 0-1.2.9-1.5 2.5-.7 3.4"/><path d="m148.1 54c-.8-.9-2.3-1-3.4 0-1.1.9-1.4 2.5-.7 3.4.8 1 2.3 1 3.4 0 1.1-.9 1.4-2.4.7-3.4"/><path d="m129.3 60.5c-1.4 1.1-1.7 3-.8 4.1.9 1.1 2.7 1.2 4.1 0 1.4-1.1 1.7-3 .8-4.1-.9-1.1-2.8-1.1-4.1 0"/><path d="m130 57.6c.8 1 2.5 1.1 3.8 0 1.3-1 1.6-2.7.8-3.8-.8-1-2.5-1.1-3.8 0-1.3 1.1-1.6 2.8-.8 3.8"/><path d="m120.5 67.6c-1.5 1.2-1.9 3.2-.9 4.5 1 1.2 3 1.3 4.5 0 1.5-1.2 1.9-3.2.9-4.5-1-1.2-3-1.2-4.5 0"/><path d="m136.9 57.6c.8 1 2.5 1.1 3.8 0 1.3-1 1.6-2.7.7-3.8-.8-1-2.5-1.1-3.8 0-1.2 1.1-1.5 2.8-.7 3.8"/><path d="m152 33.7c-.7-.9-2.1-.9-3.1 0-1 .8-1.3 2.2-.6 3.1.7.9 2.1.9 3.1 0 1-.9 1.2-2.3.6-3.1"/><path d="m189.5 13.8c-.4-.5-1.1-.5-1.7 0-.6.5-.7 1.2-.3 1.7.4.5 1.1.5 1.7 0 .6-.4.7-1.2.3-1.7"/><path d="m200.5 27.5c-.4-.5-1.1-.5-1.7 0-.6.5-.7 1.2-.3 1.7.4.5 1.1.5 1.7 0 .6-.4.7-1.2.3-1.7"/><path d="m195 20.7c-.4-.5-1.1-.5-1.7 0-.6.5-.7 1.2-.3 1.7.4.5 1.1.5 1.7 0 .6-.5.7-1.2.3-1.7"/><path d="m190.7 7.1c-.3-.4-.9-.4-1.4 0-.5.4-.6 1-.3 1.4.3.4.9.4 1.4 0 .5-.3.6-1 .3-1.4"/><path d="m192.1.3c-.3-.4-.9-.4-1.4 0-.5.4-.6 1-.3 1.4.3.4.9.4 1.4 0 .5-.4.6-1 .3-1.4"/><path d="m196.2 14c-.3-.4-.9-.4-1.4 0-.5.4-.6 1-.3 1.4.3.4.9.4 1.4 0 .5-.4.6-1 .3-1.4"/><path d="m201.7 20.9c-.3-.4-.9-.4-1.4 0-.5.4-.6 1-.3 1.4.3.4.9.4 1.4 0 .5-.4.6-1.1.3-1.4"/><path d="m192.5 34.2c-.5-.6-1.4-.6-2.1 0-.7.6-.9 1.5-.4 2.1.5.6 1.4.6 2.1 0 .7-.6.9-1.5.4-2.1"/><path d="m184 7c-.4-.5-1.1-.5-1.7 0-.6.5-.7 1.2-.3 1.7.4.5 1.1.5 1.7 0 .6-.5.7-1.2.3-1.7"/><path d="m149.4 47.2c-.8-.9-2.3-1-3.4 0-1.1.9-1.4 2.5-.7 3.4.8 1 2.3 1 3.4 0 1.2-.9 1.5-2.4.7-3.4"/><path d="m187 27.4c-.4-.6-1.4-.6-2.1 0-.7.6-.9 1.5-.4 2.1.5.6 1.4.6 2.1 0 .7-.6.9-1.6.4-2.1"/><path d="m193.7 27.5c-.4-.5-1.1-.5-1.7 0-.6.5-.7 1.2-.3 1.7.4.5 1.2.5 1.7 0 .5-.4.7-1.2.3-1.7"/><path d="m188.2 20.7c-.4-.5-1.1-.5-1.7 0-.6.5-.7 1.2-.3 1.7.4.5 1.1.5 1.7 0 .5-.5.7-1.2.3-1.7"/><path d="m181.5 20.5c-.5-.6-1.4-.6-2.1 0-.7.6-.9 1.5-.4 2.1.5.6 1.4.6 2.1 0 .7-.6.9-1.5.4-2.1"/><path d="m211 7.4c-.2-.3-.6-.3-1 0-.3.3-.4.7-.2.9.2.3.7.3 1 0 .4-.3.5-.7.2-.9"/><path d="m205.5.5c-.2-.3-.7-.3-1 0-.3.3-.4.7-.2.9.2.3.7.3 1 0 .4-.2.5-.6.2-.9"/><path d="m197.6 7.1c-.3-.4-.9-.4-1.4 0-.5.4-.6 1-.3 1.4.3.4.9.4 1.4 0 .4-.4.6-1 .3-1.4"/><path d="m208.6 20.9c-.3-.4-.9-.4-1.4 0-.5.4-.6 1-.3 1.4.3.4.9.4 1.4 0 .5-.4.6-1.1.3-1.4"/><path d="m203.1 14c-.3-.4-.9-.4-1.4 0-.5.4-.6 1-.3 1.4.3.4.9.4 1.4 0 .5-.4.6-1 .3-1.4"/><path d="m209.7 14.2c-.2-.3-.6-.3-1 0-.3.3-.4.7-.2.9.2.3.7.3 1 0 .3-.2.4-.6.2-.9"/><path d="m204.2 7.4c-.2-.3-.6-.3-1 0-.3.3-.4.7-.2.9.2.3.7.3 1 0 .3-.3.4-.7.2-.9"/><path d="m198.7.5c-.2-.3-.6-.3-1 0-.3.3-.4.7-.2.9.2.3.7.2 1 0 .3-.2.4-.6.2-.9"/><path d="m182.7 13.8c-.4-.5-1.1-.5-1.7 0-.6.5-.7 1.2-.3 1.7.4.5 1.1.5 1.7 0 .5-.4.6-1.2.3-1.7"/><path d="m164.1 40.7c-.6-.8-1.8-.8-2.7 0-.9.8-1.2 2-.6 2.7.6.8 1.8.8 2.8 0 .9-.7 1.1-1.9.5-2.7"/><path d="m163 47.4c-.7-.9-2.1-.9-3.1 0-1 .8-1.3 2.2-.6 3.1.7.9 2.1.9 3.1 0 1-.9 1.2-2.3.6-3.1"/><path d="m168.5 54.2c-.7-.9-2.1-.9-3.1 0-1 .9-1.3 2.2-.6 3.1.7.9 2.1.9 3.1 0 1-.8 1.2-2.2.6-3.1"/><path d="m158.6 33.9c-.6-.8-1.8-.8-2.7 0-.9.8-1.2 2-.5 2.7.6.8 1.8.8 2.7 0 .9-.7 1.1-2 .5-2.7"/><path d="m169.6 47.5c-.6-.7-1.8-.8-2.7 0-.9.8-1.2 2-.5 2.7.6.8 1.8.8 2.7 0 .9-.7 1.1-1.9.5-2.7"/><path d="m160 27c-.6-.8-1.8-.8-2.7 0-.9.8-1.2 2-.5 2.8.6.8 1.8.8 2.7 0 .8-.8 1.1-2 .5-2.8"/><path d="m165.5 33.9c-.6-.8-1.8-.8-2.7 0-.9.8-1.2 2-.6 2.7.6.8 1.8.8 2.8 0 .8-.7 1.1-2 .5-2.7"/><path d="m160.4 60.9c-.8-1-2.3-1-3.4 0-1.1.9-1.4 2.5-.7 3.4.8 1 2.3 1 3.4 0 1.2-.9 1.5-2.5.7-3.4"/><path d="m150.6 40.5c-.7-.9-2.1-.9-3.1 0-1 .9-1.3 2.2-.6 3.1.7.9 2.1.9 3.1 0 1-.8 1.3-2.2.6-3.1"/><path d="m154.9 54c-.8-1-2.3-1-3.4 0-1.1.9-1.4 2.5-.7 3.4.8.9 2.3 1 3.4 0 1.2-.9 1.5-2.4.7-3.4"/><path d="m157.5 40.5c-.7-.9-2.1-.9-3.1 0-1 .8-1.3 2.2-.6 3.1.7.9 2.1.9 3.1 0 1-.8 1.2-2.2.6-3.1"/><path d="m156.1 47.4c-.7-.9-2.1-.9-3.1 0-1 .8-1.3 2.2-.6 3.1.7.9 2.1.9 3.1 0 1-.9 1.3-2.3.6-3.1"/><path d="m161.6 54.2c-.7-.9-2.1-.9-3.1 0-1 .8-1.3 2.2-.6 3.1.7.9 2.1.9 3.1 0 1-.8 1.3-2.2.6-3.1"/><path d="m179 34c-.5-.7-1.6-.7-2.4 0-.8.7-1 1.7-.5 2.4.5.7 1.6.7 2.4 0 .8-.6 1-1.7.5-2.4"/><path d="m174.7 20.5c-.5-.6-1.4-.6-2.1 0-.7.6-.9 1.5-.4 2.1.5.6 1.4.6 2.1 0 .6-.6.8-1.5.4-2.1"/><path d="m173.5 27.2c-.5-.7-1.6-.7-2.4 0-.8.7-1 1.7-.5 2.4.5.7 1.6.7 2.4 0 .8-.7 1-1.7.5-2.4"/><path d="m184.5 40.9c-.5-.7-1.6-.7-2.4 0-.8.7-1 1.7-.5 2.4.5.7 1.6.7 2.4 0 .8-.7 1-1.8.5-2.4"/><path d="m176 13.7c-.5-.6-1.4-.6-2.1 0-.7.6-.9 1.5-.4 2.1.5.6 1.4.6 2.1 0 .7-.6.9-1.6.4-2.1"/><path d="m180.2 27.4c-.5-.6-1.4-.6-2.1 0-.7.6-.9 1.5-.4 2.1.5.6 1.4.6 2.1 0 .6-.6.8-1.6.4-2.1"/><path d="m185.7 34.2c-.4-.6-1.4-.6-2.1 0-.7.6-.9 1.5-.4 2.1.5.6 1.4.6 2.1 0 .6-.6.8-1.5.4-2.1"/><path d="m177.6 40.9c-.5-.7-1.6-.7-2.4 0-.8.7-1 1.7-.5 2.4.5.7 1.6.7 2.4 0 .9-.7 1.1-1.8.5-2.4"/><path d="m168 20.3c-.5-.7-1.6-.7-2.4 0-.8.7-1 1.7-.5 2.4.5.7 1.6.7 2.4 0 .8-.6 1-1.7.5-2.4"/><path d="m176.5 47.5c-.6-.8-1.8-.8-2.7 0-.9.8-1.2 2-.5 2.8.6.8 1.8.8 2.7 0 .8-.8 1.1-2 .5-2.8"/><path d="m166.6 27.2c-.5-.7-1.6-.7-2.4 0-.8.7-1 1.7-.5 2.4.5.7 1.6.7 2.4 0 .9-.7 1.1-1.7.5-2.4"/><path d="m171 40.7c-.6-.8-1.8-.8-2.7 0-.9.8-1.2 2-.6 2.7.6.8 1.8.8 2.8 0 .8-.7 1.1-1.9.5-2.7"/><path d="m172.1 34c-.5-.7-1.6-.7-2.4 0-.8.7-1 1.7-.5 2.4.5.7 1.6.7 2.4 0 .9-.6 1.1-1.7.5-2.4"/><path d="m123 111.1c-.8-1-2.5-1-3.8 0-1.2 1-1.6 2.7-.7 3.8.8 1 2.5 1 3.8 0 1.2-1.1 1.5-2.8.7-3.8"/><path d="m117.4 104.1c-.9-1.1-2.8-1.1-4.1 0-1.4 1.1-1.7 3-.8 4.1.9 1.1 2.8 1.1 4.1 0 1.4-1.2 1.7-3 .8-4.1"/><path d="m121.9 82.4c-1-1.2-3-1.2-4.5 0-1.5 1.2-1.9 3.2-.9 4.5 1 1.2 3 1.2 4.5 0 1.5-1.2 1.9-3.2.9-4.5"/><path d="m124.5 82.4c-1.5 1.2-1.8 3.2-.8 4.5 1 1.2 3 1.2 4.5 0 1.5-1.2 1.9-3.2.9-4.5-1.1-1.2-3.1-1.2-4.6 0"/><path d="m135.7 82.6c-.9-1.1-2.8-1.1-4.1 0-1.3 1.1-1.7 3-.8 4.1.9 1.1 2.8 1.1 4.1 0 1.3-1.1 1.7-3 .8-4.1"/><path d="m115.3 79.6c1.6-1.3 2-3.5 1-4.8-1.1-1.3-3.2-1.3-4.8 0-1.6 1.3-2 3.5-1 4.8 1.1 1.4 3.2 1.4 4.8 0"/><path d="m109.9 82.3c-1.6 1.3-2 3.5-.9 4.8 1.1 1.3 3.2 1.3 4.8 0 1.6-1.3 2-3.5.9-4.8-1.1-1.4-3.2-1.4-4.8 0"/><path d="m114.7 60.4c-1.5 1.2-1.9 3.2-.9 4.5 1 1.2 3 1.3 4.5 0 1.5-1.2 1.9-3.2.9-4.5-1-1.3-3-1.3-4.5 0"/><path d="m112.1 72.2c1.1 1.3 3.2 1.3 4.8 0 1.6-1.3 2-3.5 1-4.8-1.1-1.3-3.2-1.3-4.8 0-1.7 1.3-2.1 3.5-1 4.8"/><path d="m110.7 101.5c1.5-1.2 1.9-3.2.9-4.5-1-1.2-3-1.2-4.5 0-1.5 1.2-1.8 3.2-.8 4.5.9 1.3 2.9 1.3 4.4 0"/><path d="m107.4 94.5c1.1 1.3 3.2 1.3 4.8 0 1.6-1.3 2-3.5.9-4.8-1.1-1.3-3.2-1.3-4.8 0-1.5 1.3-1.9 3.5-.9 4.8"/><path d="m127.2 90c-.9-1.1-2.8-1.1-4.1 0-1.4 1.1-1.7 3-.8 4.1.9 1.1 2.8 1.1 4.1 0 1.4-1.1 1.8-3 .8-4.1"/><path d="m128.4 118.1c-.8-.9-2.3-.9-3.4 0-1.1.9-1.4 2.5-.7 3.4.8.9 2.3.9 3.4 0 1.1-.9 1.4-2.5.7-3.4"/><path d="m134.1 90c-.9-1.1-2.8-1.1-4.1 0-1.4 1.1-1.7 3-.8 4.1.9 1.1 2.8 1.1 4.1 0 1.4-1.1 1.7-3 .8-4.1"/><path d="m134.9 101.2c.8 1 2.5 1 3.8 0 1.2-1.1 1.6-2.7.7-3.8-.8-1-2.5-1-3.8 0-1.3 1.1-1.6 2.8-.7 3.8"/><path d="m140.8 90.2c-.8-1-2.5-1-3.8 0-1.2 1-1.6 2.7-.7 3.8.8 1.1 2.5 1 3.8 0 1.2-1.1 1.5-2.8.7-3.8"/><path d="m132.5 97.4c-.8-1-2.5-1-3.8 0-1.2 1.1-1.6 2.7-.7 3.8.8 1 2.5 1 3.8 0 1.2-1.1 1.5-2.8.7-3.8"/><path d="m113.8 101.4c.9 1.1 2.8 1.1 4.1 0 1.4-1.1 1.7-3 .8-4.1-.9-1.1-2.8-1.1-4.1 0-1.4 1.1-1.7 2.9-.8 4.1"/><path d="m138.4 82.6c-1.4 1.1-1.7 3-.8 4.1.9 1.1 2.8 1.1 4.1 0 1.4-1.1 1.7-3 .8-4.1-.9-1.1-2.8-1.1-4.1 0"/><path d="m143.2 94c.8 1 2.5 1 3.8 0 1.2-1 1.6-2.7.7-3.8-.8-1-2.5-1-3.8 0-1.3 1.1-1.6 2.8-.7 3.8"/><path d="m146 97.6c-.8-.9-2.3-.9-3.4 0-1.1 1-1.4 2.5-.7 3.4.8.9 2.3.9 3.4 0 1.2-1 1.5-2.5.7-3.4"/><path d="m125.6 114.7c.8.9 2.3.9 3.4 0 1.1-1 1.4-2.5.7-3.4-.8-.9-2.3-.9-3.4 0-1.2.9-1.5 2.5-.7 3.4"/><path d="m137.9 104.4c-.8-.9-2.3-.9-3.4 0-1.1 1-1.4 2.5-.7 3.4.8.9 2.3.9 3.4 0 1.1-.9 1.4-2.4.7-3.4"/><path d="m125 101.4c1.4-1.1 1.7-3 .8-4.1-.9-1.1-2.8-1.1-4.1 0-1.3 1.1-1.7 3-.8 4.1.9 1.1 2.8 1.1 4.1 0"/><path d="m119.8 108c.8 1 2.5 1 3.8 0 1.2-1 1.6-2.7.7-3.8-.8-1-2.5-1-3.8 0-1.2 1.1-1.5 2.8-.7 3.8"/><path d="m119.5 94.3c1.5-1.2 1.9-3.2.9-4.5-1-1.2-3-1.2-4.5 0-1.5 1.2-1.9 3.2-.8 4.5.9 1.3 2.9 1.2 4.4 0"/><path d="m126.7 108c.8 1 2.5 1 3.8 0 1.2-1 1.6-2.7.7-3.8-.8-1-2.5-1-3.8 0-1.2 1.1-1.6 2.8-.7 3.8"/><path d="m133.7 125.1c-.7-.8-2.1-.8-3.1 0-1 .9-1.3 2.2-.6 3.1.7.8 2.1.8 3.1 0 1.1-.9 1.3-2.2.6-3.1"/><path d="m163.4 146.3c-.4-.5-1.2-.5-1.7 0-.6.5-.7 1.2-.3 1.7.4.5 1.1.5 1.7 0 .5-.4.6-1.2.3-1.7"/><path d="m179.7 132.6c-.4-.5-1.1-.5-1.7 0-.6.5-.7 1.2-.3 1.7.4.5 1.2.5 1.7 0 .6-.4.7-1.2.3-1.7"/><path d="m171.5 139.5c-.4-.5-1.1-.5-1.7 0-.6.5-.7 1.2-.3 1.7.4.5 1.2.5 1.7 0 .6-.5.7-1.2.3-1.7"/><path d="m161.9 153.4c-.3-.4-.9-.4-1.4 0-.5.4-.6 1-.3 1.4.3.4.9.4 1.4 0 .4-.4.6-1.1.3-1.4"/><path d="m160.5 160.2c-.3-.4-.9-.4-1.4 0-.5.4-.6 1-.3 1.4.3.4.9.4 1.4 0 .5-.4.6-1 .3-1.4"/><path d="m170 146.5c-.3-.4-.9-.4-1.4 0-.5.4-.6 1-.3 1.4.3.4.9.4 1.4 0 .5-.4.6-1 .3-1.4"/><path d="m178.2 139.7c-.3-.4-.9-.4-1.4 0-.5.4-.6 1-.3 1.4.3.4.9.4 1.4 0 .5-.5.6-1.1.3-1.4"/><path d="m174.4 125.6c-.5-.6-1.4-.6-2.1 0-.7.6-.9 1.5-.4 2.1.5.6 1.4.6 2.1 0 .6-.6.8-1.5.4-2.1"/><path d="m155.2 153.2c-.4-.5-1.2-.5-1.7 0-.6.5-.7 1.2-.3 1.7.4.5 1.1.5 1.7 0 .5-.5.6-1.2.3-1.7"/><path d="m136.5 111.3c-.8-.9-2.3-.9-3.4 0-1.1 1-1.4 2.5-.7 3.4.8.9 2.3.9 3.4 0 1.2-1 1.5-2.5.7-3.4"/><path d="m166.2 132.5c-.5-.6-1.4-.6-2.1 0-.7.6-.9 1.5-.4 2.1.5.6 1.4.6 2 0 .8-.6.9-1.6.5-2.1"/><path d="m172.8 132.6c-.4-.5-1.1-.5-1.7 0-.6.5-.7 1.2-.3 1.7.4.5 1.2.5 1.7 0 .6-.4.7-1.2.3-1.7"/><path d="m164.7 139.5c-.4-.5-1.1-.5-1.7 0-.6.5-.7 1.2-.3 1.7.4.5 1.1.5 1.7 0 .5-.5.6-1.2.3-1.7"/><path d="m158 139.3c-.5-.6-1.4-.6-2.1 0-.7.6-.9 1.5-.4 2.1.5.6 1.4.6 2.1 0 .7-.6.9-1.5.4-2.1"/><path d="m182.2 153.6c-.2-.2-.7-.3-1 0-.3.3-.4.7-.2.9.2.3.7.3 1 0 .4-.2.4-.7.2-.9"/><path d="m174 160.5c-.2-.3-.7-.3-1 0-.3.3-.4.7-.2.9.2.3.7.3 1 0 .4-.3.5-.7.2-.9"/><path d="m168.7 153.4c-.3-.4-.9-.4-1.4 0-.5.4-.6 1-.3 1.4.3.4.9.4 1.4 0 .5-.4.6-1.1.3-1.4"/><path d="m185.1 139.7c-.3-.4-.9-.4-1.4 0-.5.4-.6 1-.3 1.4.3.4.9.4 1.4 0 .5-.4.6-1.1.3-1.4"/><path d="m176.9 146.5c-.3-.4-.9-.4-1.4 0-.5.4-.6 1-.3 1.4.3.4.9.4 1.4 0 .5-.4.6-1 .3-1.4"/><path d="m183.5 146.7c-.2-.3-.7-.3-1 0-.3.3-.4.7-.2.9.2.3.7.3 1 0 .4-.2.5-.6.2-.9"/><path d="m175.4 153.6c-.2-.3-.7-.3-1 0-.3.3-.4.7-.2.9.2.3.7.3 1 0 .3-.2.4-.6.2-.9"/><path d="m167.2 160.5c-.2-.3-.7-.3-1 0-.3.3-.4.7-.2.9.2.3.7.2 1 0 .3-.3.4-.7.2-.9"/><path d="m156.5 146.3c-.4-.5-1.1-.5-1.7 0-.6.5-.7 1.2-.3 1.7.4.5 1.1.5 1.7 0 .5-.4.7-1.2.3-1.7"/><path d="m148.6 118.4c-.6-.8-1.8-.8-2.7 0-.9.8-1.1 2-.5 2.8.6.8 1.8.7 2.7 0 .9-.8 1.1-2 .5-2.8"/><path d="m150.1 111.4c-.7-.8-2.1-.8-3.1 0-1 .9-1.3 2.2-.6 3.1.7.8 2.1.8 3.1 0 1-.8 1.3-2.2.6-3.1"/><path d="m158.3 104.6c-.7-.9-2.1-.9-3.1 0-1 .8-1.3 2.2-.6 3.1.7.8 2.1.8 3.1 0 1-.9 1.3-2.3.6-3.1"/><path d="m140.4 125.3c-.6-.8-1.8-.8-2.8 0-.9.8-1.1 2-.5 2.7.6.8 1.8.8 2.8 0 .9-.7 1.1-2 .5-2.7"/><path d="m156.8 111.6c-.6-.8-1.9-.8-2.8 0-.9.8-1.1 2-.5 2.8.6.8 1.9.7 2.7 0 .9-.8 1.2-2 .6-2.8"/><path d="m139.1 132.1c-.6-.8-1.8-.8-2.7 0-.9.8-1.1 2-.5 2.7.6.8 1.8.8 2.7 0 .9-.7 1.1-1.9.5-2.7"/><path d="m147.3 125.3c-.6-.8-1.8-.8-2.7 0-.9.8-1.1 2-.5 2.7.6.8 1.8.8 2.7 0 .8-.7 1.1-2 .5-2.7"/><path d="m152.9 97.6c-.8-.9-2.3-.9-3.4 0-1.1 1-1.4 2.5-.7 3.4.8.9 2.3.9 3.4 0 1.2-1 1.5-2.5.7-3.4"/><path d="m135 118.3c-.7-.9-2.1-.8-3.1 0-1 .9-1.3 2.2-.6 3.1.7.9 2.1.8 3.1 0 1.1-.9 1.3-2.3.6-3.1"/><path d="m144.7 104.4c-.8-.9-2.3-.9-3.4 0-1.1.9-1.4 2.5-.7 3.4.8 1 2.3.9 3.4 0 1.2-.9 1.5-2.4.7-3.4"/><path d="m141.9 118.3c-.7-.8-2.1-.8-3.1 0-1 .9-1.3 2.2-.6 3.1.7.8 2.1.8 3.1 0 1-.9 1.3-2.3.6-3.1"/><path d="m143.2 111.4c-.7-.8-2.1-.8-3.1 0-1 .8-1.3 2.2-.6 3.1.7.9 2.1.9 3.1 0 1-.8 1.3-2.2.6-3.1"/><path d="m151.4 104.6c-.7-.8-2.1-.8-3.1 0-1 .9-1.3 2.2-.6 3.1.7.9 2.1.9 3.1 0 1-.9 1.3-2.3.6-3.1"/><path d="m160.8 125.5c-.5-.7-1.6-.7-2.4 0-.8.7-1 1.7-.5 2.4.5.7 1.6.7 2.4 0 .8-.7 1.1-1.8.5-2.4"/><path d="m151.1 139.3c-.5-.6-1.4-.6-2.1 0-.7.6-.9 1.5-.4 2.1.5.6 1.4.6 2.1 0 .7-.6.9-1.5.4-2.1"/><path d="m152.6 132.3c-.5-.7-1.6-.7-2.4 0-.8.7-1 1.7-.5 2.4.5.7 1.6.7 2.4 0 .9-.7 1.1-1.7.5-2.4"/><path d="m169 118.6c-.5-.7-1.6-.7-2.4 0-.8.7-1 1.7-.5 2.4.5.7 1.6.7 2.4 0 .8-.6 1-1.7.5-2.4"/><path d="m149.8 146.2c-.5-.6-1.4-.6-2.1 0-.7.6-.9 1.5-.4 2.1.5.6 1.4.6 2.1 0 .7-.6.9-1.6.4-2.1"/><path d="m159.3 132.5c-.5-.6-1.4-.6-2.1 0-.7.6-.8 1.5-.4 2.1.5.6 1.4.6 2.1 0 .7-.6.9-1.6.4-2.1"/><path d="m167.5 125.6c-.5-.6-1.4-.6-2.1 0-.7.6-.9 1.5-.4 2.1.5.6 1.4.6 2.1 0 .7-.6.8-1.5.4-2.1"/><path d="m162.1 118.6c-.5-.7-1.6-.7-2.4 0-.8.7-1 1.7-.4 2.4.5.7 1.6.7 2.4 0 .8-.6 1-1.7.4-2.4"/><path d="m144.5 139.1c-.5-.7-1.6-.7-2.4 0-.8.7-1 1.7-.5 2.4.5.7 1.6.7 2.4 0 .8-.6 1-1.7.5-2.4"/><path d="m163.6 111.6c-.6-.8-1.9-.8-2.8 0-.9.8-1.1 2-.5 2.8.6.7 1.8.7 2.7 0 1-.8 1.2-2.1.6-2.8"/><path d="m145.8 132.3c-.5-.7-1.6-.7-2.4 0-.8.7-1 1.7-.5 2.4.5.7 1.6.7 2.4 0 .8-.7 1-1.7.5-2.4"/><path d="m155.5 118.4c-.6-.8-1.8-.8-2.8 0-.9.8-1.1 2-.5 2.7.6.8 1.8.7 2.7 0 .9-.7 1.2-1.9.6-2.7"/><path d="m153.9 125.4c-.5-.7-1.6-.7-2.4 0-.8.7-1 1.7-.5 2.4.5.7 1.6.7 2.4 0 .9-.6 1.1-1.7.5-2.4"/><path d="m242.6 109.3c-10 0-15.8-8-13.6-21.3 2.3-13.6 11-21.6 22.3-21.6 3.8 0 8.6.9 15.1 2.8l-3.1 7.3c-4.2-.9-6.3-1.3-9-1.3-6 0-10.2 4.1-11.6 12.4-1.3 8.1 1.2 12.1 6.7 12.1 2.5 0 6.1-.6 10.9-1.7l1.1 7c-8.2 2.9-14.4 4.3-18.8 4.3"/><path d="m281.4 109.2c-13.6 0-20.3-7.7-18-21.3 2.2-13.4 11.5-21.5 25-21.5 13.7 0 20.2 7.8 18 21.4-2.3 13.5-11.4 21.4-25 21.4m5.6-34.4c-5.3 0-8.5 4-10 12.7-1.6 9.6.2 13.3 5.8 13.3 5.3 0 8.3-3.8 9.8-12.9 1.6-9.3 0-13.1-5.6-13.1"/><path d="m321.7 109.3c-5.4 0-9.3-1.9-10.5-5.3-.9-2.4-.9-5.2.3-12.3l2.7-16.4h-7.2l1.1-6.8 7.4-1.2 1.9-11.1 13.1-1.4-1.9 12.5h11.4l-1.3 8.1h-11.4l-2.5 15.1c-1.1 6.5-1.1 7-.5 8.1.5 1.3 1.9 1.9 4.4 1.9 1.6 0 3.2-.3 6.6-.9l-1.3 7.8c-5.5 1.5-8.7 1.9-12.3 1.9"/><path d="m370.8 108.4l-2.7-13.9c-1-5.2-2.2-8-5.7-8.8-1.4-.3-3.3-.4-6.1-.4h-1.7l-3.9 23.2h-13.7l9.1-55.4 21.3-2.1c8.1 0 11.2.4 14.1 1.9 4.6 2.3 6.6 6.8 5.5 13.3-1.4 8.4-6.6 13.3-15.8 14.6 5.9.7 9 3.6 11 13.6l2.8 13.9h-14.2m.1-47.2c-1.7-.9-4-1.3-8.4-1.3h-3.7l-2.8 17h2.4c8.5 0 13.3-1.1 14.6-8.6.6-3.5-.1-5.8-2.1-7.1"/><path d="m409.1 108.4l.7-4c-5.9 3.1-10.5 4.8-14 4.8-6.8 0-10.6-4.5-9.2-12.7.7-4.1 2-7.1 4.6-9.1 4.5-3.6 12.4-4.1 21.5-4.1l.2-1c.9-5.2.1-6.7-6.3-6.7-3.2 0-6.6.3-12.4 1.4l1.3-7.6c5.1-1.3 11.1-2.9 18.9-2.9 6 0 9.3 1.5 10.8 4.7 1.2 2.8 1.1 5.7-.2 13.6l-4 23.8h-11.9m2.6-19.7c-8.3.3-11.6 2-12.4 6.3-.6 3.9 1.2 5.4 4.2 5.4 2.5 0 6.4-1.1 6.4-1.1l1.8-10.6z"/><path d="m445.1 108.4l10.2-58.7 13.1-2.4-10.2 61.1z"/><path d="m212.7 59.7c4.4 0 12.7 1.5 14.2 1.7l3.4-8.6c-8.6-2-13.6-2.8-18.7-2.8-13.4 0-22.6 6.6-24.4 17.4-2.1 12.7 6 15.1 17.3 18 6.8 1.8 8.4 3.4 7.8 6.9-1 5.8-8.7 7.3-13.8 7.3-4.3 0-9.5-.9-15-2l-.1.2-1.6 9c6.8 1.5 11.7 2.4 17.1 2.4 15.5 0 25.5-6.9 27.5-19 2-12.2-6.2-14.8-17.8-17.1-6.1-1.2-8.3-2.7-7.7-6.5.9-5.4 7.2-6.9 11.8-6.9"/><path d="m426.7 108.4l6.8-41.2h13.2l-6.9 41.2z"/><path d="m440.3 64.8c-4 0-6.6-3-6-6.8.6-3.8 4.3-6.9 8.3-6.9 4 0 6.6 3.1 6 6.9-.6 3.7-4.3 6.8-8.3 6.8"/><path d="m223.3 136.8c-1.7 0-3.3-.3-5.6-.9l1-2.8c1.6.3 3.2.6 4.5.6 1.5 0 3.8-.5 4.1-2.3.2-1.1-.3-1.6-2.3-2.2-3.4-.9-5.8-1.7-5.1-5.6.5-3.4 3.3-5.5 7.3-5.5 1.5 0 3 .2 5.6.9l-1 2.7c-.4-.1-2.9-.5-4.2-.5-1.4 0-3.3.5-3.5 2.2-.2 1.2.5 1.6 2.3 2 3.4.7 5.9 1.5 5.3 5.4-.8 3.9-3.8 6-8.4 6"/><path d="m238.8 136.8c-3.8 0-5.7-2.8-5-7.2.7-4.7 3.7-7.4 7.8-7.4 1.3 0 2.1.1 4.2.6l-1 2.6c-.4-.1-1.9-.3-2.9-.3-2.6 0-3.7 1.8-4.1 4.5-.5 3.1.4 4.4 2.3 4.4.8 0 1.4-.1 3.6-.6l.4 2.5c-2.4.6-3.8.9-5.3.9"/><path d="m251.8 136.8c-4.4 0-6.4-2.7-5.6-7.3.7-4.7 3.6-7.3 8-7.3 4.4 0 6.4 2.7 5.7 7.3-.8 4.6-3.7 7.3-8.1 7.3m1.9-12c-1.8 0-3.1 1.4-3.6 4.6-.5 3.1.1 4.7 2.1 4.7 1.8 0 3-1.3 3.5-4.6.7-3.3-.2-4.7-2-4.7"/><path d="m269.4 125l-1.8 11.5h-3.9l1.8-11.5h-4.4l.4-2.6h12.7l-.4 2.6z"/><path d="m274.1 136.5l2.2-14.1h3.9l-1.8 11.5h6.3l-.4 2.6z"/><path d="m295.7 136.5l-.6-3.1h-5.3l-1.5 3.1h-3.6l7.7-14.2h4.2l3.4 14.2h-4.3m-2-11l-2.7 5.6h3.7l-1-5.6"/><path d="m309.6 136.5l-3.2-10.1-1.4 10.1h-3.2l2.2-14.1h4.8l3.2 10.1 1.5-10.1h3.1l-2.2 14.1z"/><path d="m329 134.9c-1.9 1.5-3.9 1.6-6.5 1.6h-4.4l2.2-14.2h5.2c2.7 0 4.1.4 5.2 1.4 1.2 1.2 1.6 3.2 1.2 5.6-.4 2.5-1.4 4.4-2.9 5.6m-1.5-9c-.5-.7-1.4-.9-3-.9h-.6l-1.4 8.9h.6c1.8 0 2.8-.4 3.5-1.1.7-.8 1.2-1.9 1.4-3.4.2-1.7 0-2.8-.5-3.5"/><path d="m336.5 125.1l-2.6-1.1 3.3-5.5h4.3z"/><path d="m342.8 136.8c-1.5 0-2.8-.2-4.9-.7l1-2.5c1.6.3 2.9.5 3.9.5 1.3 0 2.9-.3 3.1-1.6.1-.8-.5-1.1-1.5-1.4-2.1-.6-5.4-.9-4.8-4.5.4-2.8 2.8-4.4 6.3-4.4 1.3 0 2.5.2 4.9.7l-.9 2.4c-.4-.1-2.6-.5-3.7-.5-1.3 0-2.4.4-2.6 1.5-.1.8.3 1.1 1.7 1.4 2.8.6 5.1 1.2 4.6 4.3-.6 3.1-3.1 4.8-7.1 4.8"/><path d="m369.2 136.5l-.8-4.4c-.3-1.6-.7-2.5-1.7-2.8-.4-.1-1-.1-1.8-.1h-.5l-1.2 7.3h-4.1l2.8-18h6.2c2.4 0 3.4.1 4.2.6 1.4.7 2 2.1 1.6 4.2-.4 2.6-2 4.2-4.7 4.6 1.8.2 2.7 1.1 3.3 4.3l.8 4.4h-4.1m0-14.9c-.5-.3-1.2-.4-2.5-.4h-1.1l-.8 5.3h.7c2.5 0 4-.4 4.3-2.7.2-1.1 0-1.8-.6-2.2"/><path d="m385 136.5l-.6-3.1h-5.3l-1.5 3.1h-3.6l7.7-14.2h4.2l3.4 14.2h-4.3m-2-11l-2.7 5.6h3.7l-1-5.6"/><path d="m391.1 136.5l2.2-14.1h3.9l-2.3 14.1z"/><path d="m398.7 136.5l2.2-14.1h3.9l-1.8 11.5h6.3l-.5 2.6z"/><path d="m424.6 136.5h-4.2l-.5-11-3.9 11h-4.2l-1.1-14.1h3.7l.3 10.8 3.9-10.8h4.2l.4 10.8 3.9-10.8h3z"/><path d="m438.6 136.5l-.6-3.1h-5.3l-1.5 3.1h-3.6l7.7-14.2h4.2l3.4 14.2h-4.3m-2-11l-2.7 5.6h3.7l-1-5.6"/><path d="m451.1 130.4l-1 6.1h-3.9l1-6.2-3.9-7.9h4.5l2.1 5.2 4-5.2h3.7z"/></g></svg>